# xmcd
#
# Track frame offsets:
#	150
#	15237
#	34482
#	43664
#	51859
#	101935
#	111135
#	140665
#
# Disc length: 2232 seconds
#
# Revision: 1
# Processed by: cddbd v1.5.2PL0 Copyright (c) Steve Scherf et al.
# Submitted via: audiograbber 1.83.01
#
DISCID=6d08b608
DTITLE=Grateful Dead - 69-08-21 Green Lake Aqua Theatre, Seattle WA
DYEAR=1900
DGENRE=
TTITLE0=Big Boss Man
TTITLE1=Sitting On Top Of The World
TTITLE2=Cryptical Envelopment
TTITLE3=Drums
TTITLE4=The Other One
TTITLE5=Cryptical Envelopment
TTITLE6=Dark Star
TTITLE7=Cosmic Charlie
EXTD=
EXTT0=
EXTT1=
EXTT2=
EXTT3=
EXTT4=
EXTT5=
EXTT6=
EXTT7=
PLAYORDER=
